<svg xmlns="http://www.w3.org/2000/svg" id="White_Badges" data-name="White Badges" viewBox="0 0 704.36 800"><defs><style>.cls-2{fill:#fff}.cls-4{fill:#ff3100}</style></defs><path d="M667.54 638.25 352.18 800 36.82 638.25V0h630.72v638.25z" style="fill:#f8f8f8"/><path d="M37.56 0v638.24L668.28 0H37.56z" class="cls-2"/><path d="M661.54 6v628.58L352.18 793.26 42.82 634.58V6h618.72m6-6H36.82v638.24L352.18 800l315.36-161.76V0Z" style="fill:#dcdfdd"/><path d="m424.91 114.11-73.36 42.63-72.1-42.63V0h145.46v114.11z" class="cls-4"/><path d="M387.21 56.45h-13.67c.38-2.15 1.7-3.34 4.38-4.71l2.52-1.28c4.5-2.31 6.89-4.91 6.89-9.16a7.44 7.44 0 0 0-3.09-6.3 12 12 0 0 0-7.35-2.27 11.41 11.41 0 0 0-6.24 1.78 10.48 10.48 0 0 0-4.12 4.5l4 4c1.53-3.1 3.76-4.62 6.69-4.62 2.47 0 4 1.28 4 3.05 0 1.49-.74 2.73-3.59 4.17l-1.61.79c-3.51 1.77-6 3.79-7.35 6.11a16.43 16.43 0 0 0-2.1 8.71v1h20.68Zm-1.83 12.19h-22.63l-11.31 19.59h22.63l11.31 19.6 11.31-19.6-11.31-19.59z" class="cls-2"/><path d="M353.39 101.3a26.13 26.13 0 0 1 0-52.26l8.95-18.72a46.35 46.35 0 0 0-8.95-.87 45.72 45.72 0 1 0 26.93 82.67L370.41 95a26 26 0 0 1-17.02 6.3Z" class="cls-2"/><path d="M681.96 501.65H22.4l-22.4-56 22.4-56h659.56l22.4 56-22.4 56z" class="cls-4"/><path d="M139.18 567.43c0 .08.06.14.16.19a6.31 6.31 0 0 1 3.42 6.07 6.56 6.56 0 0 1-2.65 5.72 11.8 11.8 0 0 1-7 1.88h-10a.68.68 0 0 1-.5-.19.66.66 0 0 1-.19-.5v-25.5a.65.65 0 0 1 .69-.69h9.68q4.68 0 7.08 1.77t2.4 5.72a5.55 5.55 0 0 1-3 5.34c-.03.05-.09.11-.09.19Zm-10.33-7.3v4.69a.24.24 0 0 0 .27.27h3.73a3.81 3.81 0 0 0 2.42-.68 2.28 2.28 0 0 0 .84-1.9 2.42 2.42 0 0 0-.84-2 3.75 3.75 0 0 0-2.42-.69h-3.73a.24.24 0 0 0-.27.31Zm6.69 15a2.91 2.91 0 0 0 0-4.07 3.64 3.64 0 0 0-2.4-.71h-4a.24.24 0 0 0-.27.27v4.95a.24.24 0 0 0 .27.27h4a3.63 3.63 0 0 0 2.4-.75ZM166 559.67a.68.68 0 0 1-.5.19h-11.72a.24.24 0 0 0-.27.27v4.57a.24.24 0 0 0 .27.27h7.41a.72.72 0 0 1 .5.19.68.68 0 0 1 .19.5v4a.65.65 0 0 1-.19.5.69.69 0 0 1-.5.2h-7.41a.24.24 0 0 0-.27.26v4.92a.24.24 0 0 0 .27.27h11.75a.65.65 0 0 1 .69.69v4.07a.66.66 0 0 1-.19.5.68.68 0 0 1-.5.19h-17.7a.65.65 0 0 1-.5-.19.67.67 0 0 1-.2-.5V555.1a.69.69 0 0 1 .2-.5.65.65 0 0 1 .5-.19h17.7a.65.65 0 0 1 .69.69v4.07a.66.66 0 0 1-.22.5Zm8.46 20.91a8 8 0 0 1-3.59-2.92 7.67 7.67 0 0 1-1.27-4.39v-.5a.65.65 0 0 1 .69-.69h4.88a.81.81 0 0 1 .49.13.4.4 0 0 1 .2.33v.46a2.73 2.73 0 0 0 1.25 2.19 5.1 5.1 0 0 0 3.2 1 3.68 3.68 0 0 0 2.5-.73 2.21 2.21 0 0 0 .8-1.69 1.81 1.81 0 0 0-.94-1.65 16.09 16.09 0 0 0-3.36-1.35l-.84-.27a31.41 31.41 0 0 1-4.3-1.74 9.33 9.33 0 0 1-3.17-2.66 6.49 6.49 0 0 1-1.31-4.12 7.11 7.11 0 0 1 1.25-4.17 8 8 0 0 1 3.46-2.75 12.44 12.44 0 0 1 5-1 12.68 12.68 0 0 1 5.32 1.08 8.83 8.83 0 0 1 3.7 3 7.76 7.76 0 0 1 1.35 4.5v.3a.7.7 0 0 1-.19.5.68.68 0 0 1-.5.19h-4.88a1.18 1.18 0 0 1-.5-.09.31.31 0 0 1-.19-.29V563a3.11 3.11 0 0 0-1.19-2.38 4.71 4.71 0 0 0-3.19-1 3.9 3.9 0 0 0-2.34.61 2 2 0 0 0-.85 1.73 1.93 1.93 0 0 0 .54 1.4 5.06 5.06 0 0 0 1.67 1c.76.32 1.91.73 3.48 1.25 1.79.61 3.18 1.15 4.18 1.61a8.37 8.37 0 0 1 2.82 2.24 6.06 6.06 0 0 1 1.33 4.09 7.23 7.23 0 0 1-1.27 4.25 8.2 8.2 0 0 1-3.57 2.82 14.65 14.65 0 0 1-10.69 0Zm39.15-25.98a.72.72 0 0 1 .19.5v4.11a.7.7 0 0 1-.19.5.68.68 0 0 1-.5.19h-6.42a.24.24 0 0 0-.27.27v20.43a.65.65 0 0 1-.69.69h-5a.68.68 0 0 1-.5-.19.66.66 0 0 1-.19-.5v-20.43a.24.24 0 0 0-.27-.27h-6.17a.65.65 0 0 1-.69-.69v-4.11a.68.68 0 0 1 .19-.5.66.66 0 0 1 .5-.19h19.51a.68.68 0 0 1 .5.19Zm16.76 25.98a8 8 0 0 1-3.59-2.92 7.67 7.67 0 0 1-1.27-4.39v-.5a.65.65 0 0 1 .69-.69h4.88a.87.87 0 0 1 .5.13.41.41 0 0 1 .19.33v.46a2.73 2.73 0 0 0 1.25 2.19 5.1 5.1 0 0 0 3.2 1 3.68 3.68 0 0 0 2.5-.73 2.22 2.22 0 0 0 .81-1.69 1.82 1.82 0 0 0-.95-1.65 16.09 16.09 0 0 0-3.36-1.35l-.84-.27a31.41 31.41 0 0 1-4.3-1.74 9.33 9.33 0 0 1-3.15-2.62 6.49 6.49 0 0 1-1.31-4.12 7.11 7.11 0 0 1 1.25-4.17 8 8 0 0 1 3.46-2.75 12.44 12.44 0 0 1 5-1 12.68 12.68 0 0 1 5.32 1.08 8.83 8.83 0 0 1 3.7 3 7.76 7.76 0 0 1 1.35 4.5v.3a.7.7 0 0 1-.19.5.68.68 0 0 1-.5.19h-4.88a1.18 1.18 0 0 1-.5-.09.31.31 0 0 1-.19-.29V563a3.11 3.11 0 0 0-1.19-2.38 4.71 4.71 0 0 0-3.19-1 3.9 3.9 0 0 0-2.34.61 2 2 0 0 0-.85 1.73 1.93 1.93 0 0 0 .54 1.4 5.17 5.17 0 0 0 1.67 1c.76.32 1.91.73 3.48 1.25 1.79.61 3.18 1.15 4.18 1.61a8.5 8.5 0 0 1 2.83 2.24 6.11 6.11 0 0 1 1.32 4.09 7.23 7.23 0 0 1-1.27 4.25 8.2 8.2 0 0 1-3.57 2.82 13.12 13.12 0 0 1-5.3 1 13.29 13.29 0 0 1-5.38-1.04Zm24.15-.11a9.09 9.09 0 0 1-3.67-3.52 10.34 10.34 0 0 1-1.3-5.26V564a10.07 10.07 0 0 1 1.3-5.16 9 9 0 0 1 3.67-3.5 12.64 12.64 0 0 1 11 0 9 9 0 0 1 3.69 3.5 10.07 10.07 0 0 1 1.31 5.16v7.68a10.34 10.34 0 0 1-1.31 5.26 9 9 0 0 1-3.69 3.52 12.73 12.73 0 0 1-11 0Zm8.45-5.4a4.46 4.46 0 0 0 1.13-3.19v-8a4.45 4.45 0 0 0-1.13-3.16 3.89 3.89 0 0 0-3-1.21 3.81 3.81 0 0 0-2.93 1.21 4.41 4.41 0 0 0-1.14 3.16v8a4.42 4.42 0 0 0 1.14 3.19 3.87 3.87 0 0 0 2.93 1.19 4 4 0 0 0 3.03-1.19Zm30.66-15.4a.66.66 0 0 1-.5.19h-11.71a.24.24 0 0 0-.27.27v4.57a.24.24 0 0 0 .27.27h7.41a.7.7 0 0 1 .5.19.68.68 0 0 1 .19.5v4a.65.65 0 0 1-.19.5.67.67 0 0 1-.5.2h-7.41a.24.24 0 0 0-.27.26v10a.66.66 0 0 1-.19.5.68.68 0 0 1-.5.19h-5a.65.65 0 0 1-.69-.69V555.1a.68.68 0 0 1 .19-.5.66.66 0 0 1 .5-.19h17.66a.66.66 0 0 1 .5.19.68.68 0 0 1 .19.5v4.07a.66.66 0 0 1-.18.5Zm23.2-5.07a.72.72 0 0 1 .19.5v4.11a.7.7 0 0 1-.19.5.68.68 0 0 1-.5.19h-6.42a.24.24 0 0 0-.26.27v20.43a.67.67 0 0 1-.2.5.65.65 0 0 1-.5.19h-5a.68.68 0 0 1-.5-.19.7.7 0 0 1-.19-.5v-20.43a.24.24 0 0 0-.27-.27h-6.18a.68.68 0 0 1-.5-.19.66.66 0 0 1-.19-.5v-4.11a.65.65 0 0 1 .69-.69h19.51a.68.68 0 0 1 .51.19Zm9.17 26.12-7-25.54a.47.47 0 0 1 0-.23c0-.36.2-.54.61-.54H325a.83.83 0 0 1 .52.17.73.73 0 0 1 .25.45l3.23 13.55c.05.1.11.15.17.15s.11-.05.14-.15l3.07-13.58a.7.7 0 0 1 .77-.62h4.57a.74.74 0 0 1 .77.62l3.37 13.55c.06.1.11.15.18.15s.11-.05.13-.15l3-13.55a.68.68 0 0 1 .25-.45.81.81 0 0 1 .52-.17h5.22a.56.56 0 0 1 .61.77l-6.37 25.5a.73.73 0 0 1-.77.61h-5.11a.83.83 0 0 1-.52-.17.7.7 0 0 1-.25-.44l-3.22-14.4c0-.13-.08-.2-.16-.2s-.12.07-.15.2l-2.92 14.4a.67.67 0 0 1-.73.61h-4.76a.72.72 0 0 1-.81-.54Zm41.79 0-.89-3.15c0-.16-.13-.23-.31-.23h-8.67a.29.29 0 0 0-.31.23l-.88 3.15a.72.72 0 0 1-.77.57h-5.42a.65.65 0 0 1-.54-.21.6.6 0 0 1 0-.56l8-25.52a.78.78 0 0 1 .81-.58h6.79a.74.74 0 0 1 .81.58l8.1 25.53a.61.61 0 0 1 0 .27c0 .34-.2.5-.61.5h-5.42a.71.71 0 0 1-.69-.58Zm-8.61-8.53a.21.21 0 0 0 .23.23h5.69a.22.22 0 0 0 .21-.1.25.25 0 0 0 0-.21l-2.92-10.21c0-.13-.07-.19-.14-.19s-.12.06-.17.19l-2.92 10.21Zm33.03 8.56-4.46-10a.29.29 0 0 0-.3-.19h-2.38a.24.24 0 0 0-.27.27v9.75a.67.67 0 0 1-.2.5.64.64 0 0 1-.49.19h-5a.68.68 0 0 1-.5-.19.7.7 0 0 1-.19-.5V555.1a.72.72 0 0 1 .19-.5.68.68 0 0 1 .5-.19h11.18a9.23 9.23 0 0 1 4.45 1 7.34 7.34 0 0 1 3 2.94 8.83 8.83 0 0 1 1 4.35 7.82 7.82 0 0 1-1.24 4.42 7.14 7.14 0 0 1-3.48 2.73.25.25 0 0 0-.15.38l4.91 10.22.08.3c0 .34-.21.5-.61.5H393a.81.81 0 0 1-.79-.5Zm-7.41-20.62v5.3a.24.24 0 0 0 .27.27h4.18a3.28 3.28 0 0 0 2.3-.79 2.66 2.66 0 0 0 .89-2.09 2.77 2.77 0 0 0-.89-2.15 3.25 3.25 0 0 0-2.3-.81h-4.18a.24.24 0 0 0-.27.27Zm37.05-.46a.66.66 0 0 1-.5.19H409.6a.24.24 0 0 0-.27.27v4.57a.24.24 0 0 0 .27.27h7.4a.67.67 0 0 1 .7.69v4a.68.68 0 0 1-.7.7h-7.4a.24.24 0 0 0-.27.26v4.92a.24.24 0 0 0 .27.27h11.75a.66.66 0 0 1 .5.19.68.68 0 0 1 .19.5v4.07a.65.65 0 0 1-.69.69h-17.7a.68.68 0 0 1-.5-.19.66.66 0 0 1-.19-.5V555.1a.65.65 0 0 1 .69-.69h17.7a.66.66 0 0 1 .5.19.68.68 0 0 1 .19.5v4.07a.66.66 0 0 1-.19.5Zm29.84 21.05-.88-3.15c0-.16-.13-.23-.31-.23h-8.68a.3.3 0 0 0-.31.23l-.88 3.15a.72.72 0 0 1-.77.57h-5.41a.62.62 0 0 1-.54-.21.59.59 0 0 1 0-.56l8.03-25.52a.76.76 0 0 1 .8-.58h6.8a.75.75 0 0 1 .81.58l8.1 25.53a.81.81 0 0 1 0 .27c0 .34-.21.5-.62.5h-5.41a.72.72 0 0 1-.73-.58Zm-8.6-8.53a.2.2 0 0 0 .23.23H449a.22.22 0 0 0 .23-.31l-2.92-10.21c0-.13-.07-.19-.13-.19s-.12.06-.17.19l-2.92 10.21Zm19.58 8.53-7-25.54a.47.47 0 0 1 0-.23c0-.36.2-.54.61-.54h5.38a.83.83 0 0 1 .52.17.73.73 0 0 1 .25.45l3.22 13.55c.05.1.11.15.17.15s.11-.05.14-.15L469 555a.7.7 0 0 1 .77-.62h4.57a.74.74 0 0 1 .77.62l3.37 13.55c.06.1.11.15.18.15s.11-.05.13-.15l3-13.55a.68.68 0 0 1 .25-.45.81.81 0 0 1 .52-.17h5.22a.56.56 0 0 1 .61.77L482 580.68a.73.73 0 0 1-.77.61h-5.11a.83.83 0 0 1-.52-.17.7.7 0 0 1-.25-.44l-3.22-14.4c0-.13-.08-.2-.16-.2s-.12.07-.15.2l-2.92 14.4a.67.67 0 0 1-.73.61h-4.76a.72.72 0 0 1-.74-.57Zm41.74 0-.88-3.15c0-.16-.13-.23-.31-.23h-8.67a.29.29 0 0 0-.31.23l-.88 3.15a.72.72 0 0 1-.77.57h-5.42a.65.65 0 0 1-.54-.21.6.6 0 0 1 0-.56l8.03-25.52a.78.78 0 0 1 .81-.58h6.79a.74.74 0 0 1 .81.58l8.1 25.53a.61.61 0 0 1 0 .27c0 .34-.2.5-.61.5h-5.42a.72.72 0 0 1-.73-.58Zm-8.6-8.53a.21.21 0 0 0 .23.23h5.69a.22.22 0 0 0 .21-.1.25.25 0 0 0 0-.21L499 561.9c0-.13-.07-.19-.14-.19s-.12.06-.17.19l-2.92 10.21Zm33.03 8.56-4.46-10a.29.29 0 0 0-.3-.19h-2.38a.24.24 0 0 0-.27.27v9.75a.67.67 0 0 1-.2.5.64.64 0 0 1-.49.19h-5a.68.68 0 0 1-.5-.19.7.7 0 0 1-.19-.5V555.1a.72.72 0 0 1 .19-.5.68.68 0 0 1 .5-.19h11.18a9.23 9.23 0 0 1 4.45 1 7.34 7.34 0 0 1 3 2.94 8.83 8.83 0 0 1 1 4.35 7.82 7.82 0 0 1-1.24 4.42 7.18 7.18 0 0 1-3.48 2.73.25.25 0 0 0-.15.38l4.91 10.22.08.3c0 .34-.21.5-.61.5h-5.27a.81.81 0 0 1-.77-.5Zm-7.41-20.62v5.3a.24.24 0 0 0 .27.27h4.18a3.28 3.28 0 0 0 2.3-.79 2.66 2.66 0 0 0 .89-2.09 2.77 2.77 0 0 0-.89-2.15 3.25 3.25 0 0 0-2.3-.81h-4.18a.24.24 0 0 0-.27.27Zm18.35 20.97a.66.66 0 0 1-.19-.5v-25.5a.65.65 0 0 1 .69-.69h9.56a12.79 12.79 0 0 1 5.3 1 8.1 8.1 0 0 1 3.57 2.95 7.82 7.82 0 0 1 1.27 4.42v10.06a7.79 7.79 0 0 1-1.27 4.42 8.1 8.1 0 0 1-3.57 3 12.63 12.63 0 0 1-5.3 1h-9.56a.68.68 0 0 1-.5-.16Zm6.45-5.26h3.88a3.17 3.17 0 0 0 2.5-1.1 4.44 4.44 0 0 0 1-2.93v-7.91a4.26 4.26 0 0 0-1-2.94 3.29 3.29 0 0 0-2.56-1.1h-3.84a.24.24 0 0 0-.27.27v15.44a.24.24 0 0 0 .29.27Zm22.26 4.74a8 8 0 0 1-3.59-2.92 7.67 7.67 0 0 1-1.27-4.39v-.5a.65.65 0 0 1 .69-.69h4.88a.87.87 0 0 1 .5.13.41.41 0 0 1 .19.33v.46a2.73 2.73 0 0 0 1.25 2.19 5.1 5.1 0 0 0 3.2 1 3.68 3.68 0 0 0 2.5-.73 2.21 2.21 0 0 0 .8-1.69 1.81 1.81 0 0 0-.94-1.65 16.09 16.09 0 0 0-3.36-1.35l-.84-.27a31.41 31.41 0 0 1-4.3-1.74 9.33 9.33 0 0 1-3.15-2.62 6.49 6.49 0 0 1-1.31-4.12 7.11 7.11 0 0 1 1.25-4.17 8 8 0 0 1 3.46-2.75 12.44 12.44 0 0 1 5-1 12.68 12.68 0 0 1 5.32 1.08 8.83 8.83 0 0 1 3.7 3 7.76 7.76 0 0 1 1.35 4.5v.3a.7.7 0 0 1-.19.5.68.68 0 0 1-.5.19h-4.88a1.18 1.18 0 0 1-.5-.09.31.31 0 0 1-.19-.29V563a3.11 3.11 0 0 0-1.19-2.38 4.71 4.71 0 0 0-3.19-1 3.9 3.9 0 0 0-2.34.61 2 2 0 0 0-.85 1.73 1.93 1.93 0 0 0 .54 1.4 5.06 5.06 0 0 0 1.67 1c.76.32 1.91.73 3.48 1.25 1.79.61 3.18 1.15 4.18 1.61a8.37 8.37 0 0 1 2.82 2.24 6.06 6.06 0 0 1 1.33 4.09 7.23 7.23 0 0 1-1.27 4.25 8.2 8.2 0 0 1-3.57 2.82 13.15 13.15 0 0 1-5.3 1 13.29 13.29 0 0 1-5.38-1.04ZM285.3 662.47a.32.32 0 0 0 .31.15h19.48a.89.89 0 0 1 .65.27.87.87 0 0 1 .26.65v9a.87.87 0 0 1-.26.65.89.89 0 0 1-.65.27h-35.83a.89.89 0 0 1-.65-.27.87.87 0 0 1-.26-.65v-8.48a1.54 1.54 0 0 1 .45-1.14q4.59-4.27 12.15-12.3l4.58-4.81q7-7.19 7-10.47a4.67 4.67 0 0 0-1.64-3.67 6.2 6.2 0 0 0-4.24-1.45 6.06 6.06 0 0 0-4.2 1.45 4.92 4.92 0 0 0-1.6 3.82v1.84a.89.89 0 0 1-.27.65.92.92 0 0 1-.65.26h-11a.91.91 0 0 1-.65-.26.89.89 0 0 1-.27-.65v-3.82a13.44 13.44 0 0 1 2.83-7.49 16.21 16.21 0 0 1 6.65-4.93 23.69 23.69 0 0 1 9.16-1.71 22 22 0 0 1 9.89 2.1 15.63 15.63 0 0 1 6.5 5.69 14.57 14.57 0 0 1 .72 14.28 31.69 31.69 0 0 1-4.58 6.8q-2.14 2.6-4.81 5.27t-7.41 7.18l-1.53 1.45c-.15.12-.18.22-.13.32Zm31.32 6.99q-5-4.94-5-13.41v-18.64q0-8.4 5-13.21t13.83-4.81q8.78 0 13.9 4.85t5.12 13.17v18.64q0 8.48-5.12 13.41t-13.9 4.93q-8.79 0-13.83-4.93Zm18.45-7.79a6.82 6.82 0 0 0 1.72-4.93V637a6.8 6.8 0 0 0-1.72-4.92 6.1 6.1 0 0 0-4.62-1.8 5.87 5.87 0 0 0-4.51 1.8 6.91 6.91 0 0 0-1.68 4.92v19.79a7.06 7.06 0 0 0 1.64 4.93 5.88 5.88 0 0 0 4.55 1.79 6.13 6.13 0 0 0 4.62-1.84Zm37.24.8a.31.31 0 0 0 .31.15h19.47a.92.92 0 0 1 .92.92v9a.92.92 0 0 1-.92.92h-35.82a.92.92 0 0 1-.92-.92v-8.48a1.51 1.51 0 0 1 .46-1.14q4.59-4.27 12.15-12.3l4.58-4.81q6.94-7.19 6.95-10.47a4.7 4.7 0 0 0-1.64-3.67 6.21 6.21 0 0 0-4.24-1.45 6.06 6.06 0 0 0-4.2 1.45 4.92 4.92 0 0 0-1.61 3.82v1.84a.89.89 0 0 1-.91.91h-11a.9.9 0 0 1-.92-.91v-3.82a13.37 13.37 0 0 1 2.83-7.51 16.17 16.17 0 0 1 6.64-4.93 23.74 23.74 0 0 1 9.17-1.71 22 22 0 0 1 9.89 2.1 15.54 15.54 0 0 1 6.49 5.69 14.54 14.54 0 0 1 .73 14.28 32.07 32.07 0 0 1-4.58 6.8c-1.43 1.73-3 3.49-4.82 5.27s-4.25 4.18-7.41 7.18l-1.52 1.45a.25.25 0 0 0-.08.34Zm43.39 0a.3.3 0 0 0 .3.15h19.48a.92.92 0 0 1 .92.92v9a.92.92 0 0 1-.92.92h-35.82a.92.92 0 0 1-.92-.92v-8.48a1.51 1.51 0 0 1 .46-1.14q4.57-4.27 12.14-12.3l4.59-4.81q6.94-7.19 6.95-10.47a4.7 4.7 0 0 0-1.64-3.67 6.21 6.21 0 0 0-4.24-1.45 6 6 0 0 0-4.2 1.45 4.92 4.92 0 0 0-1.61 3.82v1.84a.89.89 0 0 1-.27.65.91.91 0 0 1-.65.26h-11a.9.9 0 0 1-.91-.91v-3.82a13.36 13.36 0 0 1 2.82-7.49 16.21 16.21 0 0 1 6.65-4.93 23.74 23.74 0 0 1 9.17-1.71 22 22 0 0 1 9.89 2.1 15.54 15.54 0 0 1 6.49 5.69 14.54 14.54 0 0 1 .73 14.28 31.77 31.77 0 0 1-4.59 6.8c-1.42 1.73-3 3.49-4.81 5.27s-4.25 4.18-7.41 7.18l-1.53 1.45a.26.26 0 0 0-.07.32ZM231.08 241.58a2.38 2.38 0 0 1 .68 1.75v14.38a2.31 2.31 0 0 1-2.42 2.42h-22.45a.83.83 0 0 0-.94.94v71.51a2.32 2.32 0 0 1-.67 1.74 2.37 2.37 0 0 1-1.75.68h-17.47a2.37 2.37 0 0 1-1.75-.68 2.32 2.32 0 0 1-.67-1.74v-71.51a.84.84 0 0 0-.94-.94h-21.64a2.3 2.3 0 0 1-2.42-2.42v-14.38a2.37 2.37 0 0 1 .67-1.75 2.4 2.4 0 0 1 1.75-.67h68.28a2.39 2.39 0 0 1 1.74.67Zm8.81 88.04a31.63 31.63 0 0 1-11.36-17.47 42.83 42.83 0 0 1-1.61-12.1 48.94 48.94 0 0 1 1.74-13 30.06 30.06 0 0 1 11.5-16.6q8.4-6 20.36-6t20 6A31 31 0 0 1 292 286.88a43.31 43.31 0 0 1 1.88 12.9 46.32 46.32 0 0 1-1.48 11.83 31.54 31.54 0 0 1-11.29 17.88q-8.46 6.58-20.7 6.58-12.12 0-20.52-6.45Zm27-15.12a13.67 13.67 0 0 0 3.7-6.79 33.91 33.91 0 0 0 .81-7.66 31.84 31.84 0 0 0-1-7.79 12.63 12.63 0 0 0-3.62-6.46 9.36 9.36 0 0 0-6.46-2.28 9.25 9.25 0 0 0-6.51 2.28 12.94 12.94 0 0 0-3.57 6.46 26.63 26.63 0 0 0-.94 7.79 33.91 33.91 0 0 0 .81 7.66 14.92 14.92 0 0 0 3.76 6.79 8.85 8.85 0 0 0 6.45 2.49 9.08 9.08 0 0 0 6.58-2.49ZM371 300.59a47.24 47.24 0 0 1-2.82 16.93 29.15 29.15 0 0 1-10 13.51 25.28 25.28 0 0 1-15.52 5.18q-10.22 0-15.32-6.19c-.27-.35-.52-.49-.74-.4s-.34.36-.34.81v26.74a2.3 2.3 0 0 1-2.42 2.42h-17.49a2.3 2.3 0 0 1-2.42-2.42v-89.24a2.3 2.3 0 0 1 2.42-2.42h17.47a2.3 2.3 0 0 1 2.42 2.42v3.22c0 .45.11.72.34.81s.47 0 .74-.4q5.1-7.12 15.32-7.13a25.66 25.66 0 0 1 16.13 5.78 28.79 28.79 0 0 1 10.08 14.92 50 50 0 0 1 2.15 15.46Zm-23.92-.4a23.79 23.79 0 0 0-2.29-11.19 9 9 0 0 0-8.2-5q-5.1 0-7.93 5.1a23.48 23.48 0 0 0-2.28 11c0 4.92.8 8.87 2.42 11.82a8.73 8.73 0 0 0 7.79 4.57 8.9 8.9 0 0 0 8.07-4.7q2.41-4.35 2.42-11.6Zm123.38 4.3a35.14 35.14 0 0 1-2.42 12.9 28.43 28.43 0 0 1-11.63 13.37 34.85 34.85 0 0 1-18.75 5A35.23 35.23 0 0 1 419 330.9a28.44 28.44 0 0 1-11.69-13.38 31.35 31.35 0 0 1-2-7.25v-.54c0-1.35.76-2 2.29-2h18.1a2.78 2.78 0 0 1 2.69 1.75 5.72 5.72 0 0 0 .81 1.75 8.39 8.39 0 0 0 3.29 4.1 9.43 9.43 0 0 0 5.17 1.41 8.85 8.85 0 0 0 5-1.48 9.06 9.06 0 0 0 3.3-3.9 12.81 12.81 0 0 0 1.61-6.45 13.25 13.25 0 0 0-1.35-6.86 7.82 7.82 0 0 0-3.15-3.83 10 10 0 0 0-5.45-1.41q-5.51 0-8.33 3.77a6.39 6.39 0 0 1-1.28 1.21 2.79 2.79 0 0 1-1.54.4h-18.78a2.3 2.3 0 0 1-2.42-2.42v-52.44a2.37 2.37 0 0 1 .67-1.75 2.4 2.4 0 0 1 1.75-.67H465a2.31 2.31 0 0 1 2.42 2.42v14.25A2.31 2.31 0 0 1 465 260h-36.48a.83.83 0 0 0-.94.94V276a.86.86 0 0 0 .27.74c.18.14.45.12.81-.07a25.05 25.05 0 0 1 12.23-3.09 29.63 29.63 0 0 1 16.8 4.84 27.27 27.27 0 0 1 10.48 13.17 38.31 38.31 0 0 1 2.29 12.9Zm17.47 23.45q-8.87-8.67-8.87-23.59v-32.79q0-14.79 8.87-23.25t24.33-8.47q15.45 0 24.46 8.53t9 23.19v32.79q0 14.92-9 23.59t-24.46 8.67q-15.47 0-24.33-8.67Zm32.46-13.71q3-3.15 3-8.67v-34.81q0-5.5-3-8.67a10.76 10.76 0 0 0-8.13-3.16 10.36 10.36 0 0 0-7.93 3.16c-2 2.11-3 5-3 8.67v34.81q0 5.52 2.89 8.67a10.29 10.29 0 0 0 8 3.16 10.73 10.73 0 0 0 8.17-3.16Z" style="fill:#252530"/><path d="M129.32 423.37h6.84a.67.67 0 0 1 .5.21.64.64 0 0 1 .2.49v39.54a.66.66 0 0 1-.2.5.7.7 0 0 1-.5.2h-6.84a.68.68 0 0 1-.7-.7v-25.79q0-.24-.12-.24c-.08 0-.16.06-.23.18l-6.2 9.71a.93.93 0 0 1-.82.47h-3.45a.92.92 0 0 1-.82-.47l-6.2-9.71c-.08-.12-.16-.17-.23-.15s-.12.11-.12.27v25.73a.67.67 0 0 1-.21.5.68.68 0 0 1-.49.2h-6.85a.68.68 0 0 1-.49-.2.67.67 0 0 1-.21-.5v-39.54a.72.72 0 0 1 .7-.7h6.85a.93.93 0 0 1 .82.47l8.77 13.63c.12.23.23.23.35 0l8.83-13.63a.92.92 0 0 1 .82-.47Zm32.93 11.73a11.19 11.19 0 0 1 4.65 3.59 8.45 8.45 0 0 1 1.66 5.09v19.83a.66.66 0 0 1-.2.5.7.7 0 0 1-.5.2H161a.7.7 0 0 1-.5-.2.66.66 0 0 1-.2-.5v-1.93a.23.23 0 0 0-.12-.23c-.08 0-.16 0-.23.11q-2.46 3.22-7.9 3.22a11.54 11.54 0 0 1-7.37-2.22 7.86 7.86 0 0 1-2.81-6.55 8.41 8.41 0 0 1 3.16-7q3.16-2.49 9-2.49h6c.2 0 .3-.09.3-.29V445a3.9 3.9 0 0 0-1.17-3 5 5 0 0 0-3.51-1.08 6.27 6.27 0 0 0-3 .64 3 3 0 0 0-1.55 1.82.68.68 0 0 1-.76.58l-7.08-.94c-.47-.07-.68-.25-.64-.52a7.76 7.76 0 0 1 2-4.45 11.43 11.43 0 0 1 4.57-3.1 17.25 17.25 0 0 1 6.34-1.11 16.62 16.62 0 0 1 6.72 1.26Zm-3.69 22.19a4.15 4.15 0 0 0 1.76-3.45v-2.1a.27.27 0 0 0-.3-.3h-4.21a7.38 7.38 0 0 0-4.12 1 3.19 3.19 0 0 0-1.49 2.81 3 3 0 0 0 1.11 2.48 4.53 4.53 0 0 0 3 .91 6.79 6.79 0 0 0 4.25-1.35Zm34.1-22.63a.73.73 0 0 1 .35.88l-1.23 6.66c0 .47-.31.61-.82.41a6.56 6.56 0 0 0-2-.29 9.42 9.42 0 0 0-1.29.12 5.72 5.72 0 0 0-3.57 1.55 4.78 4.78 0 0 0-1.46 3.65v16a.7.7 0 0 1-.2.5.72.72 0 0 1-.5.2h-6.84a.69.69 0 0 1-.5-.2.67.67 0 0 1-.21-.5V435a.7.7 0 0 1 .71-.7h6.84a.68.68 0 0 1 .7.7v2.22a.24.24 0 0 0 .12.24.11.11 0 0 0 .17-.06 7.44 7.44 0 0 1 6.44-3.51 5.9 5.9 0 0 1 3.29.77Zm4.34 29.45a.67.67 0 0 1-.21-.5v-39.54a.72.72 0 0 1 .71-.7h6.84a.69.69 0 0 1 .5.21.68.68 0 0 1 .2.49v19.71q0 .18.12.21a.24.24 0 0 0 .23-.09l8-9.24a1.22 1.22 0 0 1 .87-.41H222c.39 0 .59.14.59.41a1 1 0 0 1-.18.47l-7.43 9.41a.57.57 0 0 0-.06.41l8.72 18.54a.94.94 0 0 1 .12.35c0 .32-.22.47-.65.47h-7.19a.83.83 0 0 1-.82-.52l-5.79-13.69a.28.28 0 0 0-.2-.15.17.17 0 0 0-.21.09l-3.74 4.68a.89.89 0 0 0-.12.35v8.54a.7.7 0 0 1-.2.5.72.72 0 0 1-.5.2h-6.84a.69.69 0 0 1-.5-.2Zm55.08-12.96a.68.68 0 0 1-.76.7h-18.07c-.23 0-.31.1-.23.3a10.2 10.2 0 0 0 .64 2.34q1.51 3.27 6.2 3.27a7.08 7.08 0 0 0 5.91-3 .53.53 0 0 1 .93-.12l4.21 4.16a.79.79 0 0 1 .3.52 1.16 1.16 0 0 1-.24.47 12.67 12.67 0 0 1-5 3.71 16.58 16.58 0 0 1-6.67 1.32 15.2 15.2 0 0 1-8.51-2.28 12.71 12.71 0 0 1-5-6.38 20 20 0 0 1-1.23-7.66 17 17 0 0 1 .88-5.67 12.89 12.89 0 0 1 4.71-6.61 14.44 14.44 0 0 1 17.37.94 14.84 14.84 0 0 1 4.3 9.06 25.32 25.32 0 0 1 .26 4.93Zm-18.71-6.84a12.38 12.38 0 0 0-.41 1.87c0 .2.09.29.29.29h10.12c.23 0 .31-.09.23-.29-.19-1.13-.29-1.67-.29-1.64a5.11 5.11 0 0 0-1.84-2.72 5.37 5.37 0 0 0-3.25-1 4.68 4.68 0 0 0-4.85 3.49Zm40.15-3.66a.67.67 0 0 1-.5.21h-5.61a.26.26 0 0 0-.3.29v12.4a4.43 4.43 0 0 0 .79 2.87 3.18 3.18 0 0 0 2.55.93h1.93a.72.72 0 0 1 .7.7v5.56a.73.73 0 0 1-.7.76q-2.46.12-3.51.12-4.86 0-7.25-1.61t-2.46-6.05v-15.68a.26.26 0 0 0-.29-.29h-3.34a.72.72 0 0 1-.7-.7V435a.69.69 0 0 1 .21-.5.68.68 0 0 1 .49-.2h3.34a.26.26 0 0 0 .29-.29v-7a.7.7 0 0 1 .2-.5.68.68 0 0 1 .5-.2h6.55a.66.66 0 0 1 .5.2.7.7 0 0 1 .2.5v7a.26.26 0 0 0 .3.29H273a.7.7 0 0 1 .5.2.72.72 0 0 1 .2.5v5.21a.68.68 0 0 1-.18.44Zm6.31-11.11a4.63 4.63 0 1 1 6.61 0 4.8 4.8 0 0 1-6.61 0Zm-.7 34.57a.66.66 0 0 1-.2-.5v-28.72a.64.64 0 0 1 .2-.49.67.67 0 0 1 .5-.21h6.84a.67.67 0 0 1 .5.21.64.64 0 0 1 .2.49v28.72a.66.66 0 0 1-.2.5.7.7 0 0 1-.5.2h-6.84a.7.7 0 0 1-.5-.2Zm37.7-27.46a10.5 10.5 0 0 1 2.86 7.78v19.18a.7.7 0 0 1-.2.5.72.72 0 0 1-.5.2h-6.84a.7.7 0 0 1-.5-.2.66.66 0 0 1-.2-.5v-17.49a5.46 5.46 0 0 0-1.32-3.8 4.88 4.88 0 0 0-7 0 5.46 5.46 0 0 0-1.32 3.8v17.49a.68.68 0 0 1-.7.7h-6.84a.7.7 0 0 1-.5-.2.66.66 0 0 1-.2-.5V435a.68.68 0 0 1 .2-.5.7.7 0 0 1 .5-.2h6.84a.7.7 0 0 1 .5.2.72.72 0 0 1 .2.5v2a.23.23 0 0 0 .12.23.12.12 0 0 0 .18-.06 8.15 8.15 0 0 1 7.13-3.39 10.23 10.23 0 0 1 7.59 2.87Zm27.34-2.2a.68.68 0 0 1 .49-.2h6.85a.68.68 0 0 1 .49.2.69.69 0 0 1 .21.5v26.67q0 7.67-4.42 10.94t-11.37 3.27a38.48 38.48 0 0 1-4.56-.29c-.39 0-.59-.29-.59-.76l.23-6c0-.51.28-.73.82-.65a23 23 0 0 0 3.86.35 8.92 8.92 0 0 0 5.76-1.63q2-1.63 2-5.27c0-.11 0-.18-.11-.2a.25.25 0 0 0-.24.09c-1.48 1.6-3.64 2.39-6.49 2.39a13.73 13.73 0 0 1-7-1.84 10.2 10.2 0 0 1-4.53-5.93 22.82 22.82 0 0 1-.88-7 21.94 21.94 0 0 1 1-7.43 11.67 11.67 0 0 1 4.16-5.73 11.05 11.05 0 0 1 6.78-2.17 8.78 8.78 0 0 1 6.9 2.69.25.25 0 0 0 .24.09c.07 0 .11-.09.11-.2V435a.69.69 0 0 1 .29-.55Zm-.21 14.6c0-1.21 0-2.15-.11-2.81a9.83 9.83 0 0 0-.41-1.87 5.33 5.33 0 0 0-1.76-2.55 4.78 4.78 0 0 0-3-1 4.69 4.69 0 0 0-3 1 5.73 5.73 0 0 0-1.82 2.55 11.48 11.48 0 0 0-.81 4.74 11.17 11.17 0 0 0 .7 4.67 5 5 0 0 0 1.84 2.55 5.17 5.17 0 0 0 3.13 1 4.88 4.88 0 0 0 3.1-1 5 5 0 0 0 1.7-2.49 19.55 19.55 0 0 0 .48-4.79ZM394 424.89a11.17 11.17 0 0 1 4.53 4.48 13.45 13.45 0 0 1 1.61 6.63 12.5 12.5 0 0 1-1.67 6.5 11.31 11.31 0 0 1-4.68 4.35 14.86 14.86 0 0 1-6.93 1.55h-8.3a.27.27 0 0 0-.3.3v14.91a.66.66 0 0 1-.2.5.7.7 0 0 1-.5.2h-6.84a.68.68 0 0 1-.7-.7V424a.68.68 0 0 1 .2-.49.67.67 0 0 1 .5-.21h16.49a14.1 14.1 0 0 1 6.79 1.59Zm-3.69 15.35a5.33 5.33 0 0 0 1.64-4.06 5.5 5.5 0 0 0-1.64-4.15 5.93 5.93 0 0 0-4.33-1.58h-7.42a.26.26 0 0 0-.3.29v10.76c0 .2.1.29.3.29H386a6 6 0 0 0 4.34-1.55Zm32.69-5.58a.74.74 0 0 1 .35.88l-1.23 6.66c0 .47-.31.61-.82.41a6.67 6.67 0 0 0-2-.29 9.3 9.3 0 0 0-1.28.12 5.67 5.67 0 0 0-3.57 1.55 4.74 4.74 0 0 0-1.46 3.65v16a.67.67 0 0 1-.21.5.7.7 0 0 1-.5.2h-6.84a.72.72 0 0 1-.5-.2.7.7 0 0 1-.2-.5V435a.68.68 0 0 1 .7-.7h6.84a.7.7 0 0 1 .5.2.69.69 0 0 1 .21.5v2.22a.25.25 0 0 0 .11.24.12.12 0 0 0 .18-.06 7.43 7.43 0 0 1 6.43-3.51 5.92 5.92 0 0 1 3.29.77Zm8.23 27.55a12.9 12.9 0 0 1-4.8-7 20.66 20.66 0 0 1-.82-6 21.6 21.6 0 0 1 .82-6.2 12.59 12.59 0 0 1 4.85-6.78 14.31 14.31 0 0 1 8.43-2.46 13.68 13.68 0 0 1 8.18 2.43 12.94 12.94 0 0 1 4.8 6.75 20.18 20.18 0 0 1 .94 6.15 20.77 20.77 0 0 1-.82 5.9 13.13 13.13 0 0 1-4.77 7.17 13.65 13.65 0 0 1-8.39 2.6 13.87 13.87 0 0 1-8.42-2.56Zm11.69-5.68a6.48 6.48 0 0 0 1.93-3.21 17 17 0 0 0 .47-4.1 15.87 15.87 0 0 0-.47-4.15 6.45 6.45 0 0 0-2-3.1 5.42 5.42 0 0 0-6.57 0 6.2 6.2 0 0 0-1.91 3.1 14.05 14.05 0 0 0-.46 4.15 15.66 15.66 0 0 0 .41 4.1 6.38 6.38 0 0 0 2 3.21 5 5 0 0 0 3.36 1.17 4.8 4.8 0 0 0 3.24-1.17Zm34.89-32.95a.67.67 0 0 1 .5-.21h6.84a.69.69 0 0 1 .5.21.68.68 0 0 1 .2.49v39.54a.7.7 0 0 1-.2.5.72.72 0 0 1-.5.2h-6.84a.7.7 0 0 1-.5-.2.66.66 0 0 1-.2-.5v-1.93c0-.12 0-.18-.12-.2a.26.26 0 0 0-.24.08 8 8 0 0 1-6.72 3.22 11.2 11.2 0 0 1-7-2.28 12.55 12.55 0 0 1-4.24-6.26 22.93 22.93 0 0 1-1-7.08 22.66 22.66 0 0 1 1.05-7.25 12.52 12.52 0 0 1 4.24-5.93 11.48 11.48 0 0 1 7.16-2.2 7.91 7.91 0 0 1 6.55 2.93c.08.11.16.15.24.11a.23.23 0 0 0 .12-.23v-12.52a.64.64 0 0 1 .16-.49Zm-.26 25.7a12.27 12.27 0 0 0-1.29-6.14 4.29 4.29 0 0 0-3.92-2.28 4.56 4.56 0 0 0-4.15 2.28 11.36 11.36 0 0 0-1.46 6.2 12.61 12.61 0 0 0 1.22 5.85 4.71 4.71 0 0 0 4.33 2.51 4.53 4.53 0 0 0 4.1-2.51 12.49 12.49 0 0 0 1.17-5.91Zm32.25-14.83a.7.7 0 0 1 .5-.2h6.84a.7.7 0 0 1 .5.2.68.68 0 0 1 .2.5v28.66a.66.66 0 0 1-.2.5.7.7 0 0 1-.5.2h-6.84a.7.7 0 0 1-.5-.2.66.66 0 0 1-.2-.5v-2c0-.12 0-.18-.12-.2s-.16 0-.23.14q-2.34 3.17-7.26 3.16a10.23 10.23 0 0 1-7.31-2.69 9.84 9.84 0 0 1-2.86-7.54V435a.68.68 0 0 1 .2-.5.7.7 0 0 1 .5-.2h6.78a.7.7 0 0 1 .5.2.69.69 0 0 1 .21.5v17.49a5.6 5.6 0 0 0 1.25 3.8 4.33 4.33 0 0 0 3.48 1.46 4.62 4.62 0 0 0 3.28-1.2 5.18 5.18 0 0 0 1.58-3.12V435a.68.68 0 0 1 .2-.55Zm19.2 27.99a12.79 12.79 0 0 1-4.88-6.43 21.57 21.57 0 0 1-1-6.9 20.82 20.82 0 0 1 1-6.79 12.13 12.13 0 0 1 4.86-6.26 14.37 14.37 0 0 1 8.12-2.28 14.56 14.56 0 0 1 8.22 2.34 11.21 11.21 0 0 1 4.71 5.91 7.5 7.5 0 0 1 .47 2.1v.12a.62.62 0 0 1-.59.64l-6.72 1h-.12a.71.71 0 0 1-.7-.59l-.18-.93a4.43 4.43 0 0 0-1.81-2.52 5.65 5.65 0 0 0-3.33-1 5.25 5.25 0 0 0-3.16.93 5.06 5.06 0 0 0-1.82 2.58 14.6 14.6 0 0 0-.64 4.79 15.69 15.69 0 0 0 .59 4.8 5 5 0 0 0 5 3.74 5.41 5.41 0 0 0 3.18-1 4.93 4.93 0 0 0 1.9-2.66.82.82 0 0 0 .06-.35.24.24 0 0 0 .06-.18c0-.47.31-.66.82-.58l6.73 1a.62.62 0 0 1 .58.64 8.56 8.56 0 0 1-.35 1.76 10.91 10.91 0 0 1-4.77 6.14 15 15 0 0 1-8.16 2.22 14 14 0 0 1-8.07-2.24Zm43.38-21.79a.65.65 0 0 1-.49.21h-5.62a.26.26 0 0 0-.29.29v12.4a4.37 4.37 0 0 0 .79 2.87 3.14 3.14 0 0 0 2.54.93h1.93a.67.67 0 0 1 .5.21.64.64 0 0 1 .2.49v5.56a.72.72 0 0 1-.7.76q-2.46.12-3.51.12-4.85 0-7.25-1.61t-2.48-6.05v-15.68a.25.25 0 0 0-.29-.29h-3.31a.67.67 0 0 1-.5-.21.64.64 0 0 1-.2-.49V435a.68.68 0 0 1 .2-.5.7.7 0 0 1 .5-.2h3.33a.25.25 0 0 0 .27-.3v-7a.67.67 0 0 1 .21-.5.66.66 0 0 1 .5-.2h6.55a.64.64 0 0 1 .49.2.67.67 0 0 1 .21.5v7a.26.26 0 0 0 .29.29h5.62a.68.68 0 0 1 .49.2.69.69 0 0 1 .21.5v5.21a.65.65 0 0 1-.19.45Zm10.32 22.96a10.36 10.36 0 0 1-4.53-3.1 7 7 0 0 1-1.61-4.5v-.59a.7.7 0 0 1 .71-.7h6.49a.68.68 0 0 1 .7.7v.06a2.59 2.59 0 0 0 1.43 2.19 6.59 6.59 0 0 0 3.6.91 5.86 5.86 0 0 0 3.22-.79 2.31 2.31 0 0 0 1.22-2 1.69 1.69 0 0 0-1-1.58 17.88 17.88 0 0 0-3.45-1.11 35.64 35.64 0 0 1-4.33-1.34 18.59 18.59 0 0 1-6-3.16 6.62 6.62 0 0 1-2.23-5.38 8.17 8.17 0 0 1 3.37-6.88 14.44 14.44 0 0 1 8.92-2.54 16.57 16.57 0 0 1 6.55 1.2 10.05 10.05 0 0 1 4.35 3.36 8.2 8.2 0 0 1 1.55 4.92.64.64 0 0 1-.2.49.67.67 0 0 1-.5.21h-6.26a.72.72 0 0 1-.71-.7 2.58 2.58 0 0 0-1.31-2.17A7.35 7.35 0 0 0 586 441a2.14 2.14 0 0 0-1.23 1.93 1.87 1.87 0 0 0 1.2 1.75 20.38 20.38 0 0 0 4 1.23c.42.12.91.24 1.46.38s1.13.3 1.75.5a19 19 0 0 1 6.55 3.15 6.79 6.79 0 0 1 2.4 5.62 7.8 7.8 0 0 1-3.42 6.75q-3.42 2.43-9.21 2.43a19.29 19.29 0 0 1-6.8-1.13Z" class="cls-2"/></svg>